<?xml version="1.0" standalone="no"?>
<!DOCTYPE svg PUBLIC "-//W3C//DTD SVG 20010904//EN"
 "http://www.w3.org/TR/2001/REC-SVG-20010904/DTD/svg10.dtd">
<svg version="1.0" xmlns="http://www.w3.org/2000/svg"
 width="30pt" height="40pt" viewBox="0 0 640.000000 1280.000000"
 preserveAspectRatio="xMidYMid meet">
<metadata>
Created by potrace 1.15, written by Peter Selinger 2001-2017
</metadata>
<g transform="translate(0.000000,1280.000000) scale(0.100000,-0.100000)"
fill="#000000" stroke="none">
<path d="M3260 12430 l0 -370 -70 0 -70 0 0 -190 0 -190 70 0 70 0 0 95 c0 95
0 95 25 95 l25 0 0 465 0 465 -25 0 -25 0 0 -370z"/>
<path d="M2920 11656 c-317 -44 -548 -131 -689 -262 -68 -63 -100 -116 -116
-191 -6 -32 -6 -33 29 -33 l36 0 0 -570 0 -569 -341 -3 -341 -3 -24 -28 -24
-28 0 -409 0 -409 24 -28 24 -28 186 -3 186 -3 0 -32 c0 -18 -7 -205 -15 -417
-8 -212 -22 -569 -30 -795 -9 -225 -34 -840 -56 -1365 -22 -525 -39 -1009 -39
-1075 0 -66 -5 -223 -10 -350 -6 -126 -28 -675 -50 -1220 -22 -545 -44 -1098
-50 -1230 -48 -1153 -80 -1951 -80 -2004 l0 -51 -135 0 -135 0 0 -80 0 -80
-105 0 -105 0 0 -95 0 -95 -95 0 -95 0 0 -100 0 -100 2325 0 2325 0 0 100 0
100 -95 0 -95 0 0 95 0 95 -90 0 -90 0 0 80 0 80 -140 0 c-135 0 -140 1 -140
21 0 11 -70 1518 -155 3347 -85 1830 -157 3397 -160 3482 -3 85 -10 254 -15
375 -6 121 -19 427 -30 680 -10 253 -22 499 -25 547 l-6 87 187 3 186 3 24 28
24 28 0 409 0 409 -24 28 -24 28 -321 3 -321 3 0 570 0 569 30 0 c26 0 30 4
30 28 0 37 -40 120 -81 166 -108 124 -340 226 -629 278 -146 26 -497 34 -640
14z m-150 -583 l0 -58 -43 -18 c-88 -36 -120 -153 -120 -437 0 -270 28 -384
103 -422 l35 -18 -82 0 -83 0 0 -45 0 -45 -167 0 -168 0 0 550 0 550 263 0
262 0 0 -57z m790 -8 c0 -56 -2 -65 -18 -65 -10 0 -51 -9 -91 -19 -67 -18 -77
-18 -115 -4 -60 22 -209 28 -275 10 -45 -12 -59 -13 -85 -2 -17 7 -57 18 -88
25 l-58 11 0 55 0 54 365 0 365 0 0 -65z m585 -485 l0 -550 -180 0 -180 0 3
45 4 44 -69 3 c-62 3 -66 4 -41 15 66 29 92 146 92 413 1 293 -29 409 -114
436 -35 11 -35 12 -38 78 l-3 66 263 0 263 0 0 -550z m-1375 298 c0 -92 -14
-168 -31 -168 -3 0 -9 48 -12 108 -3 59 -9 115 -12 124 -5 13 -1 21 16 27 13
5 27 10 32 10 4 1 7 -45 7 -101z m153 89 l38 -12 -66 -47 -65 -48 0 60 c0 59
0 60 28 59 15 0 44 -6 65 -12z m637 -68 l0 -72 -42 40 c-24 21 -54 46 -67 56
-14 9 -23 18 -20 20 4 4 92 24 117 26 8 1 12 -19 12 -70z m94 52 c3 -4 0 -73
-6 -152 -14 -169 -26 -155 -27 34 -1 104 2 127 13 127 8 0 17 -4 20 -9z m-886
-589 c3 -212 2 -213 -41 -197 -11 5 -12 17 -6 56 4 28 11 118 15 200 5 102 11
148 18 146 7 -2 12 -70 14 -205z m792 -7 l0 -215 -27 0 c-16 0 -57 8 -93 18
-61 18 -65 21 -68 50 l-3 31 -190 3 -189 3 0 -27 c0 -30 -27 -43 -111 -54
l-49 -7 0 207 0 206 365 0 365 0 0 -215z m98 -152 c9 -42 3 -53 -29 -53 -11 0
-12 403 -1 414 4 4 10 -66 14 -155 4 -90 11 -182 16 -206z m-668 -68 c0 -12
-13 -15 -62 -14 l-63 1 45 13 c61 18 80 18 80 0z m420 -5 c12 -8 9 -10 -12
-10 -16 0 -28 5 -28 10 0 13 20 13 40 0z m-1653 -247 c50 -33 53 -53 53 -320
0 -231 -1 -250 -20 -281 -52 -85 -189 -76 -226 15 -21 48 -20 490 1 539 27 66
126 90 192 47z m392 16 l31 -11 -2 -326 -3 -327 -40 -8 c-54 -12 -108 11 -135
55 -19 31 -20 50 -20 284 0 245 1 252 23 285 13 19 38 39 57 46 45 15 50 15
89 2z m415 5 c9 -3 16 -12 16 -20 0 -11 -16 -14 -66 -14 -69 0 -78 12 -21 29
41 12 52 12 71 5z m1381 -17 c18 -11 15 -12 -22 -15 -23 -2 -64 -2 -90 0 l-48
4 35 17 c37 18 87 15 125 -6z m403 3 c70 -32 73 -49 70 -340 -3 -234 -4 -250
-24 -277 -31 -41 -91 -60 -143 -44 l-41 12 0 320 0 320 33 14 c42 19 54 18
105 -5z m399 -6 c51 -32 54 -55 51 -333 -3 -242 -4 -260 -23 -281 -51 -58
-142 -62 -194 -9 -39 38 -44 81 -39 349 3 241 6 250 73 281 44 21 93 18 132
-7z"/>
</g>
</svg>
